<?xml version="1.0" encoding="UTF-8" standalone="no"?>
<!-- Created with Inkscape (http://www.inkscape.org/) -->

<svg
   version="1.1"
   id="svg2"
   xml:space="preserve"
   width="4710.6665"
   height="2666.6667"
   viewBox="0 0 4710.6665 2666.6667"
   sodipodi:docname="10836.eps"
   xmlns:inkscape="http://www.inkscape.org/namespaces/inkscape"
   xmlns:sodipodi="http://sodipodi.sourceforge.net/DTD/sodipodi-0.dtd"
   xmlns="http://www.w3.org/2000/svg"
   xmlns:svg="http://www.w3.org/2000/svg"><defs
     id="defs6" /><sodipodi:namedview
     id="namedview4"
     pagecolor="#ffffff"
     bordercolor="#666666"
     borderopacity="1.0"
     inkscape:pageshadow="2"
     inkscape:pageopacity="0.0"
     inkscape:pagecheckerboard="0" /><g
     id="g8"
     inkscape:groupmode="layer"
     inkscape:label="ink_ext_XXXXXX"
     transform="matrix(1.3333333,0,0,-1.3333333,0,2666.6667)"><g
       id="g10"
       transform="scale(0.1)"><path
         d="M 0,0 H 35330 V 20000 H 0 Z"
         style="fill:#ffffff;fill-opacity:1;fill-rule:nonzero;stroke:none"
         id="path12" /><path
         d="M 32536.1,996.703 C 33562,2422.8 32900.5,11605.7 31246.6,12535.8 c -856.5,481.7 -1633.7,357.9 -2365.7,234.1 -820.6,-138.9 -1584.4,-277.8 -2339,437.2 -622.7,589.8 -108.2,2053.8 -1395.2,2534.7 -761.9,284.6 -2007.4,-1.6 -3140.1,-287.9 -1554.7,-393 -2896.9,-786 -2484,297.9 713.9,1873.4 -4142.3,3165.8 -8774,2917.7 C 6116.92,18421.4 6976.66,15882 7041.55,15471.3 7106.45,15060.5 7787.83,13076.8 5148.84,12165.1 2509.86,11253.4 3115.54,10011.2 3375.1,9299.8 3601.18,8680.3 4878.46,7947.3 3018.19,6344.4 1469.42,5009.8 1878.16,1695.1 2328.05,1015.3 L 32536.1,996.703"
         style="fill:#eafcfc;fill-opacity:1;fill-rule:nonzero;stroke:none"
         id="path14" /><path
         d="M 12892.3,12691.7 H 8166.97 c -2.23,21.5 -3.46,43.2 -3.46,65.2 0,371.5 325.07,672.6 726.07,672.6 128.14,0 248.45,-30.9 352.95,-84.8 147.65,376.5 537.29,645.4 994.77,645.4 384.5,0 721.1,-190 906.3,-474.2 80.7,23.3 166.5,35.9 255.5,35.9 344.2,0 640.9,-187.7 777.7,-458.6 47,11.3 96.3,17.4 147.2,17.4 277.1,0 508.8,-179 568.3,-418.9"
         style="fill:#fbfefe;fill-opacity:1;fill-rule:nonzero;stroke:none"
         id="path16" /><path
         d="m 16007.9,16185.9 h -4035.1 c 50.8,204.9 248.7,357.7 485.3,357.7 43.4,0 85.5,-5.2 125.7,-14.8 116.8,231.3 370.2,391.5 664.1,391.5 75.9,0 149.2,-10.7 218.1,-30.6 158.2,242.7 445.6,405 774,405 390.6,0 723.4,-229.7 849.4,-551.2 89.3,46.1 192,72.4 301.4,72.4 342.5,0 620,-257.1 620,-574.3 0,-18.8 -1,-37.4 -2.9,-55.7"
         style="fill:#fbfefe;fill-opacity:1;fill-rule:nonzero;stroke:none"
         id="path18" /><path
         d="M 18804.2,13026.1 H 16536 c 28.5,115.1 139.8,201.1 272.8,201.1 24.4,0 48.1,-2.9 70.6,-8.4 65.7,130 208.1,220.1 373.3,220.1 42.7,0 83.9,-6 122.6,-17.2 89,136.4 250.5,227.6 435.1,227.6 219.6,0 406.6,-129.1 477.5,-309.8 50.1,25.9 107.9,40.7 169.4,40.7 192.5,0 348.5,-144.5 348.5,-322.8 0,-10.6 -0.6,-21 -1.6,-31.3"
         style="fill:#fbfefe;fill-opacity:1;fill-rule:nonzero;stroke:none"
         id="path20" /><path
         d="M 26473.3,12208.6 H 22934 c 44.6,179.7 218.2,313.8 425.7,313.8 38.1,0 75.1,-4.5 110.3,-13 102.4,202.9 324.7,343.5 582.5,343.5 66.6,0 130.9,-9.5 191.3,-26.9 138.8,212.9 390.9,355.2 678.9,355.2 342.6,0 634.4,-201.5 745,-483.5 78.3,40.4 168.4,63.6 264.4,63.6 300.3,0 543.8,-225.6 543.8,-503.8 0,-16.5 -0.9,-32.8 -2.6,-48.9"
         style="fill:#fbfefe;fill-opacity:1;fill-rule:nonzero;stroke:none"
         id="path22" /><path
         d="m 2977.77,6308.7 v 49.5 h 56.41 c -5.28,-4.6 -10.65,-9.2 -15.99,-13.8 -13.61,-11.8 -27.11,-23.7 -40.42,-35.7"
         style="fill:#e2eefc;fill-opacity:1;fill-rule:nonzero;stroke:none"
         id="path24" /><path
         d="m 2977.77,1133.5 v 5175.2 c 13.31,12 26.81,23.9 40.42,35.7 5.34,4.6 10.71,9.2 15.99,13.8 h 655.05 v 238.1 435.2 l 1066.96,1031 V 6504.1 l 319.17,-10 v 1571.3 h 372.36 V 10430 h 223.42 v 449.7 h 872.41 V 10430 h 223.41 v -669.6 h 904.2 V 7214.2 l 182.52,-10 10.34,2521.8 h 647.73 V 8384.4 l 404.28,-10 v 2096.8 h 138.31 v 442.5 h 1212.86 v -442.5 h 138.3 V 7645.6 h 255.3 v 881.1 h 212.8 v 430.8 h 308.5 v 1257.6 H 11629 V 8957.5 h 308.5 v -430.8 h 212.8 V 7036.1 h 148.9 l 117.1,1.4 v 1727 L 13699,8736.2 V 7543.1 h 812 v 509.7 h 957.5 v 2792.9 h 276.6 v 359.7 h 606.4 V 7771.2 h 662.2 v -509.7 h 265.9 v 1476.1 l 3148.1,28.3 V 7677.6 l 265.9,-1.4 V 8528 h 212.7 v 430.9 h 308.4 v 1257.5 h 446.7 V 8958.9 h 308.5 V 8528 h 212.7 v -514.7 h 255.2 v 2459.3 h 138.3 v 442.5 h 1212.4 v -442.5 h 138.3 V 8375.8 l 404.1,10 v 1341.6 h 1148.7 l 51.6,-2521.8 171.7,10 v 851.2 h 372.3 v 669.6 h 223.3 v 449.7 h 872.1 v -449.7 h 223.4 v -669.6 h 372.2 V 6495.5 l 319.1,10 v 1558.4 h 1066.6 V 6597.7 6359.6 h 651.4 v 739.6 h 456.6 V 5438.1 h 818.3 V 1134.9 l -13884.9,-0.7 -14215.53,-0.7 M 19269.4,3801.1 v 0 c 2.5,-6.3 5,-8.9 8.3,-8.9 2.3,0 5.1,1.3 8.6,3.4 24.6,15 49.5,29.5 74.3,44.2 225.3,133.3 450.6,266.7 676,399.8 6.8,4 11.2,7 11.2,11.5 0,3 -1.9,6.6 -6.3,11.7 -10.6,12.4 -20.9,25.2 -31.1,38.1 v 0 l -38.6,48.6 c 22.7,14.3 43,29.4 61.7,46 136.6,121.4 182.8,312.4 117.5,486.7 -62.1,166.1 -217.7,277.1 -396.3,282.7 -5.4,0.2 -10.7,0.3 -16,0.3 -120.3,0 -225,-43.6 -311.6,-129.8 l -20.6,25.9 c -4.7,5.9 -9.3,11.7 -13.9,17.6 l -0.1,0.1 c -4.6,6 -9.2,12 -13.7,18.1 -5.3,7.3 -9.8,11.1 -15.6,11.1 -3.7,0 -7.9,-1.6 -13.3,-4.9 -1.6,-1 -3.3,-2 -4.9,-3 -0.4,-0.2 -0.7,-0.4 -1.1,-0.6 -1.4,-0.9 -2.9,-1.8 -4.4,-2.7 -0.6,-0.4 -1.2,-0.7 -1.7,-1 -1.1,-0.7 -2.1,-1.3 -3.2,-1.9 -1.2,-0.8 -2.4,-1.5 -3.6,-2.2 -0.4,-0.3 -0.8,-0.5 -1.2,-0.8 -27.3,-16.4 -54.7,-32.6 -82.1,-48.8 -25.8,-15.3 -51.6,-30.5 -77.3,-45.8 -12.5,-7.4 -25.6,-12.7 -39.8,-16 -87.6,-20.3 -175,-41.1 -262.6,-61.2 -13.4,-3 -16.5,-6.7 -9.8,-19.8 8.4,-16.5 13.1,-34.8 21.4,-51.4 7.6,-15.3 3.8,-23 -11,-30.5 -21.9,-11.2 -21,-12.1 -11.4,-35 33.4,-79 66.4,-158.2 99.6,-237.2 42.5,-101.1 85.2,-202.1 127.7,-303.2 12.7,-30.2 25,-60.4 38.8,-94 -15.7,5.9 -27.9,10.5 -40.1,15.1 -213.1,79.6 -426.1,159.3 -639.2,238.8 -12.5,4.6 -21.3,11.7 -28.6,22.9 -26.8,41.2 -54.5,81.9 -82,122.7 -10.2,15.1 -20.8,29.8 -33.2,47.4 -43.2,-115.3 -85.2,-227.5 -128.5,-343.3 69.6,18.4 135,35.4 200.3,53.1 3.9,1 7.6,1.6 11.2,1.6 4.9,0 9.6,-1 14.7,-3.2 264.5,-113.9 529.1,-227.7 793.8,-341.2 9.7,-4.2 14.9,-10.4 18.8,-20 9.8,-23.8 19.9,-47.6 29.9,-71.3 v 0 c 4.2,-10.1 8.5,-20.1 12.7,-30.2 3.6,-8.5 7.1,-17.1 10.6,-25.6 0.1,-0.3 0.2,-0.5 0.3,-0.7 0.4,-0.9 0.8,-1.9 1.2,-2.9 0.2,-0.5 0.4,-1 0.6,-1.5 0.3,-0.7 0.6,-1.5 0.9,-2.2 0.3,-0.8 0.6,-1.5 0.9,-2.2 0.6,-1.5 1.2,-2.9 1.8,-4.4 m 637.7,629.8 -415.8,523.6 c 62.3,68.7 151.7,107.6 247.3,107.6 3.3,0 6.7,-0.1 10.1,-0.2 100.7,-2.8 193.1,-48.4 253.5,-124.9 10,-12.6 19.1,-25.9 27.8,-40.7 46.7,-79 59.5,-170.9 36.1,-258.8 -23.4,-87.5 -79.7,-160.7 -159,-206.6"
         style="fill:#cfebf9;fill-opacity:1;fill-rule:nonzero;stroke:none"
         id="path26" /><path
         d="M 22670.4,1550.5 C 18813.2,1965.1 13982.7,5990 10707,6459.5 7252.79,6954.5 3702.29,1441.2 3702.29,1441.2 l 18968.11,48.3 v 61"
         style="fill:#86b1f2;fill-opacity:1;fill-rule:nonzero;stroke:none"
         id="path28" /><path
         d="m 9707.54,3818 h -171.09 v 1896.6 h 171.09 V 3818"
         style="fill:#355389;fill-opacity:1;fill-rule:nonzero;stroke:none"
         id="path30" /><path
         d="M 9622,9393.9 9063.49,4880.3 h 1117.01 z"
         style="fill:#3c8f7c;fill-opacity:1;fill-rule:nonzero;stroke:none"
         id="path32" /><path
         d="m 9266.05,6517.3 796.35,-682.9 -30.6,247.5 -741,635.4 -24.75,-200"
         style="fill:#50bfa5;fill-opacity:1;fill-rule:nonzero;stroke:none"
         id="path34" /><path
         d="m 9388.48,7506.7 487.66,-166.8 -22.92,185.3 -443.67,151.7 -21.07,-170.2"
         style="fill:#50bfa5;fill-opacity:1;fill-rule:nonzero;stroke:none"
         id="path36" /><path
         d="m 11358.2,3799.3 h -153.4 v 1425.6 h 153.4 V 3799.3"
         style="fill:#355389;fill-opacity:1;fill-rule:nonzero;stroke:none"
         id="path38" /><path
         d="M 11302.8,7766.6 10901.9,4889 h 801.8 z"
         style="fill:#3c8f7c;fill-opacity:1;fill-rule:nonzero;stroke:none"
         id="path40" /><path
         d="m 10927.3,5071.6 719.4,226.8 -10.9,78 -696.6,-219.6 -11.9,-85.2"
         style="fill:#50bfa5;fill-opacity:1;fill-rule:nonzero;stroke:none"
         id="path42" /><path
         d="m 11054,5980.7 476.7,150.3 -10.9,78 -454,-143.1 -11.8,-85.2"
         style="fill:#50bfa5;fill-opacity:1;fill-rule:nonzero;stroke:none"
         id="path44" /><path
         d="m 32094,3928.1 123.9,254.7 c 88.3,190.7 14.3,412.6 -165.2,495.7 -452.3,209.4 -999.2,-10.4 -1221.6,-490.9 l -162.6,-351.2 c -71.3,-153.9 -214.8,-249.7 -365.7,-261.3 -137.1,-10.5 -260,-101.4 -320.4,-232.1 l -85.8,-185.1 c -92.8,-200.5 -90.8,-428.7 -1.7,-622.3 52.1,-113.3 55,-251.5 -3.5,-377.9 L 29770,1895.5 c -134.1,-289.9 -21.7,-627.3 251.2,-753.6 l 155.7,-72.1 c 272.9,-126.3 602.9,6.3 737.1,296.2 124.7,386.9 331.1,548 512.2,610.8 266.4,92.4 489.8,292.2 612.1,556.5 l 17.2,37 c 129.1,278.9 128.8,596.1 8.6,867.3 -53.1,119.8 -66.9,281.5 29.9,490.5"
         style="fill:#96d9c9;fill-opacity:1;fill-rule:nonzero;stroke:none"
         id="path46" /><path
         d="m 2643.03,3930.8 -123.94,254.8 c -88.26,190.7 -14.3,412.6 165.18,495.7 452.29,209.3 999.25,-10.4 1221.65,-490.9 l 162.6,-351.3 c 71.24,-153.8 214.81,-249.6 365.7,-261.2 137.03,-10.5 259.92,-101.4 320.41,-232.1 l 85.73,-185.2 c 92.8,-200.5 90.86,-428.6 1.75,-622.3 -52.11,-113.2 -55.05,-251.4 3.45,-377.8 l 121.37,-262.2 c 134.19,-289.9 21.75,-627.3 -251.14,-753.6 l -155.7,-72.1 c -272.89,-126.299 -602.9,6.3 -737.09,296.2 v 0 c -124.7,386.9 -331.09,547.9 -512.24,610.8 -266.38,92.3 -489.81,292.2 -612.12,556.5 l -17.16,37 c -129.09,278.9 -128.83,596 -8.56,867.3 53.1,119.8 66.83,281.5 -29.89,490.4"
         style="fill:#96d9c9;fill-opacity:1;fill-rule:nonzero;stroke:none"
         id="path48" /><path
         d="m 24873.9,1571.9 h 171.1 v 1896.6 h -171.1 V 1571.9"
         style="fill:#355389;fill-opacity:1;fill-rule:nonzero;stroke:none"
         id="path50" /><path
         d="M 24959.5,7147.8 25518,2634.2 h -1117 z"
         style="fill:#3c8f7c;fill-opacity:1;fill-rule:nonzero;stroke:none"
         id="path52" /><path
         d="m 25315.4,4271.2 -796.4,-682.9 30.6,247.5 741.1,635.4 24.7,-200"
         style="fill:#50bfa5;fill-opacity:1;fill-rule:nonzero;stroke:none"
         id="path54" /><path
         d="m 25193,5260.6 -487.7,-166.8 22.9,185.3 443.7,151.7 21.1,-170.2"
         style="fill:#50bfa5;fill-opacity:1;fill-rule:nonzero;stroke:none"
         id="path56" /><path
         d="m 23649.5,1553.2 h 153.4 v 1425.6 h -153.4 V 1553.2"
         style="fill:#355389;fill-opacity:1;fill-rule:nonzero;stroke:none"
         id="path58" /><path
         d="m 23704.9,5520.5 400.9,-2877.6 H 23304 Z"
         style="fill:#3c8f7c;fill-opacity:1;fill-rule:nonzero;stroke:none"
         id="path60" /><path
         d="m 24080.4,2825.5 -719.4,226.8 10.9,78 696.6,-219.6 11.9,-85.2"
         style="fill:#50bfa5;fill-opacity:1;fill-rule:nonzero;stroke:none"
         id="path62" /><path
         d="m 23953.7,3734.6 -476.7,150.3 10.9,78 454,-143.1 11.8,-85.2"
         style="fill:#50bfa5;fill-opacity:1;fill-rule:nonzero;stroke:none"
         id="path64" /><path
         d="m 2324.28,1019.8 c 0,0 3447.66,3289.7 7893.12,3491.7 1492.7,67.9 7605.2,-1292.6 12752.5,-2361.5 216.4,-44.9 5610.9,-1120.5 6345.4,-1153 l -26991.02,22.8"
         style="fill:#96d9c9;fill-opacity:1;fill-rule:nonzero;stroke:none"
         id="path66" /><path
         d="m 26411.9,997 c 0,0 900.6,1196.3 1467.4,1379.8 566.8,183.5 32.6,-545.2 32.6,-545.2 0,0 1005.5,1099.4 1374.4,1000.3 338.2,-90.9 0,-772.3 0,-772.3 0,0 380.9,377.3 842.9,377.3 462,0 -357.1,-1413 -357.1,-1413 L 26411.9,997"
         style="fill:#50bfa5;fill-opacity:1;fill-rule:nonzero;stroke:none"
         id="path68" /><path
         d="m 29315.3,1003.7 c 0,0 615.7,1646.5 1378.2,1456.1 617.8,-154.3 178.5,-982.7 216.2,-945.1 37.7,37.7 369.1,600 905.3,600 536.2,0 -164.6,-758.9 -164.6,-758.9 0,0 1142.4,356.8 1231.8,-17.9 74.3,-310.9 -340.9,-334.2 -340.9,-334.2 h -3226"
         style="fill:#3c8f7c;fill-opacity:1;fill-rule:nonzero;stroke:none"
         id="path70" /><path
         d="m 6455.2,997 c 0,0 -900.66,1196.3 -1467.44,1379.8 -566.77,183.5 -32.59,-545.2 -32.59,-545.2 0,0 -978.53,1335 -1347.5,1235.9 -338.22,-90.8 -200.48,-765.1 -200.48,-765.1 0,0 -207.36,134.5 -669.31,134.5 -461.96,0 357.05,-1413 357.05,-1413 L 6455.2,997"
         style="fill:#50bfa5;fill-opacity:1;fill-rule:nonzero;stroke:none"
         id="path72" /><path
         d="m 4278.58,1003.7 c 0,0 -441.83,1181.6 -989.01,1045 -443.43,-110.8 -128.16,-705.3 -155.19,-678.3 -27.04,27.1 -264.87,430.6 -649.67,430.6 -384.81,0 118.12,-544.6 118.12,-544.6 0,0 -819.87,256 -884.07,-12.8 -53.28,-223.2 244.7,-239.9 244.7,-239.9 h 2315.12"
         style="fill:#3c8f7c;fill-opacity:1;fill-rule:nonzero;stroke:none"
         id="path74" /><path
         d="m 7141.94,1367.7 c 4.04,23.9 6.14,48.3 6.14,73.2 0,277.3 -259.9,502.1 -580.5,502.1 -320.59,0 -580.49,-224.8 -580.49,-502.1 0,-24.9 2.1,-49.3 6.14,-73.2 h 1148.71"
         style="fill:#3c8f7c;fill-opacity:1;fill-rule:nonzero;stroke:none"
         id="path76" /><path
         d="m 7798.9,1491.1 c 4.03,33.7 6.13,68.2 6.13,103.2 0,391.1 -259.89,708.1 -580.48,708.1 -320.6,0 -580.5,-317 -580.5,-708.1 0,-35 2.1,-69.5 6.14,-103.2 H 7798.9"
         style="fill:#50bfa5;fill-opacity:1;fill-rule:nonzero;stroke:none"
         id="path78" /><path
         d="m 7586.36,1057.2 c -4.04,23.9 -6.14,48.3 -6.14,73.2 0,277.3 259.9,502.1 580.5,502.1 320.59,0 580.49,-224.8 580.49,-502.1 0,-24.9 -2.1,-49.3 -6.14,-73.2 H 7586.36"
         style="fill:#50bfa5;fill-opacity:1;fill-rule:nonzero;stroke:none"
         id="path80" /><path
         d="m 6657.32,1057.2 c -5.11,33.7 -7.77,68.1 -7.77,103.2 0,391.1 329.46,708.1 735.88,708.1 406.43,0 735.89,-317 735.89,-708.1 0,-35.1 -2.66,-69.5 -7.78,-103.2 H 6657.32"
         style="fill:#3c8f7c;fill-opacity:1;fill-rule:nonzero;stroke:none"
         id="path82" /><path
         d="m 7222.35,1868.5 c -203.13,0 -384.59,-100.6 -504.35,-258.3 -60.98,14.5 -125.78,22.3 -192.95,22.3 -360.62,0 -652.97,-224.8 -652.97,-502.1 0,-24.9 2.36,-49.3 6.9,-73.2 h 1989.44 c 4.54,33.7 6.9,68.1 6.9,103.2 0,391.1 -292.34,708.1 -652.97,708.1"
         style="fill:#50bfa5;fill-opacity:1;fill-rule:nonzero;stroke:none"
         id="path84" /><path
         d="m 4705.97,2548.7 c -170.88,266.9 -202.77,589.3 -199.42,812.8 3.62,242.5 48.39,424.2 48.84,426 l -12.36,4.3 c -0.45,-1.8 -45.58,-184.7 -49.27,-428.9 -3.41,-225.7 28.84,-551.4 201.83,-821.7 l 10.38,7.5"
         style="fill:#3c8f7c;fill-opacity:1;fill-rule:nonzero;stroke:none"
         id="path86" /><path
         d="m 4597.47,3831.8 c -4.2,-54.9 -28.51,-100.9 -63.49,-129.2 -29.9,38.3 -46.68,90.6 -42.48,145.5 4.2,54.9 28.5,100.9 63.49,129.2 29.9,-38.2 46.68,-90.6 42.48,-145.5"
         style="fill:#3c8f7c;fill-opacity:1;fill-rule:nonzero;stroke:none"
         id="path88" /><path
         d="m 4481.98,3705.1 c 28.98,-47.5 37.97,-101.6 28.68,-148.5 -44.39,10.6 -87.35,41.6 -116.33,89.1 -28.99,47.5 -37.98,101.6 -28.7,148.6 44.39,-10.6 87.36,-41.7 116.35,-89.2"
         style="fill:#3c8f7c;fill-opacity:1;fill-rule:nonzero;stroke:none"
         id="path90" /><path
         d="m 4416.55,3556 c 45.01,-29.3 75.52,-74.5 87.25,-122.2 -42.77,-12.1 -92.94,-4.8 -137.96,24.5 -45.01,29.3 -75.52,74.5 -87.26,122.2 42.79,12.1 92.95,4.8 137.97,-24.5"
         style="fill:#3c8f7c;fill-opacity:1;fill-rule:nonzero;stroke:none"
         id="path92" /><path
         d="m 4436.72,3348.4 c 35.64,-23.3 57.73,-63.1 63.75,-107.1 -37.13,-15.8 -78.92,-13.9 -114.55,9.4 -35.64,23.3 -57.73,63.1 -63.75,107.1 37.13,15.8 78.92,13.9 114.55,-9.4"
         style="fill:#3c8f7c;fill-opacity:1;fill-rule:nonzero;stroke:none"
         id="path94" /><path
         d="m 4583.99,3594.4 c 40.06,21.4 84.9,22.6 123.29,7.1 -10.14,-41.4 -37.1,-78.6 -77.17,-100 -40.06,-21.4 -84.9,-22.6 -123.28,-7.1 10.13,41.4 37.1,78.6 77.16,100"
         style="fill:#3c8f7c;fill-opacity:1;fill-rule:nonzero;stroke:none"
         id="path96" /><path
         d="m 4579.55,3451 c 40.07,21.4 84.91,22.6 123.29,7.1 -10.14,-41.4 -37.1,-78.6 -77.17,-100 -40.05,-21.4 -84.9,-22.6 -123.28,-7.1 10.14,41.4 37.1,78.6 77.16,100"
         style="fill:#3c8f7c;fill-opacity:1;fill-rule:nonzero;stroke:none"
         id="path98" /><path
         d="m 4462.51,3120.3 c 21.19,-5 38.76,-19.3 49.37,-37.9 -15.05,-12.6 -35.45,-18 -56.63,-13.1 -21.18,5 -38.76,19.3 -49.36,37.9 15.05,12.6 35.44,18 56.62,13.1"
         style="fill:#3c8f7c;fill-opacity:1;fill-rule:nonzero;stroke:none"
         id="path100" /><path
         d="m 4635.51,2360 c -391.07,93.5 -689.33,382.8 -870.67,609 -196.87,245.6 -302.34,471.9 -303.38,474.2 l -15.92,-8.2 c 1.05,-2.3 107.26,-230.3 305.39,-477.5 183.09,-228.5 484.45,-520.7 880.36,-615.4 l 4.22,17.9"
         style="fill:#3c8f7c;fill-opacity:1;fill-rule:nonzero;stroke:none"
         id="path102" /><path
         d="m 3466.75,3529.9 c 41.18,-58.9 54.99,-129.4 43.46,-192.9 -61.41,7.8 -121.4,43.1 -162.58,102.1 -41.18,58.9 -55,129.4 -43.46,193 61.41,-7.9 121.4,-43.2 162.58,-102.2"
         style="fill:#3c8f7c;fill-opacity:1;fill-rule:nonzero;stroke:none"
         id="path104" /><path
         d="m 3456.3,3286.9 c 68.17,-18.1 121.83,-63 151.37,-119.2 -53.01,-34.3 -121.53,-46.7 -189.7,-28.7 -68.17,18.1 -121.82,63 -151.36,119.1 53.01,34.4 121.53,46.8 189.69,28.8"
         style="fill:#3c8f7c;fill-opacity:1;fill-rule:nonzero;stroke:none"
         id="path106" /><path
         d="m 3514.29,3072 c 69.11,16.3 136.9,2.1 188,-33.6 -32.6,-55.4 -88.67,-98.8 -157.78,-115.1 -69.1,-16.3 -136.89,-2 -187.99,33.6 32.59,55.4 88.67,98.8 157.77,115.1"
         style="fill:#3c8f7c;fill-opacity:1;fill-rule:nonzero;stroke:none"
         id="path108" /><path
         d="m 3670.1,2876.7 c 69.1,16.2 136.89,2 187.99,-33.7 -32.6,-55.3 -88.67,-98.8 -157.78,-115 -69.1,-16.3 -136.89,-2.1 -187.99,33.6 32.6,55.4 88.67,98.8 157.78,115.1"
         style="fill:#3c8f7c;fill-opacity:1;fill-rule:nonzero;stroke:none"
         id="path110" /><path
         d="m 3623.51,3201.4 c -3.49,66.5 18.37,129.1 55.7,174.1 41.56,-35.4 69.65,-91.9 73.13,-158.4 3.49,-66.5 -18.37,-129.1 -55.7,-174.1 -41.56,35.4 -69.65,91.9 -73.13,158.4"
         style="fill:#3c8f7c;fill-opacity:1;fill-rule:nonzero;stroke:none"
         id="path112" /><path
         d="m 3785.99,2999.3 c -4.49,66.4 16.41,129.4 53.06,175.1 42.09,-34.6 71.03,-90.6 75.52,-157 4.49,-66.4 -16.41,-129.4 -53.06,-175.1 -42.09,34.7 -71.03,90.6 -75.52,157"
         style="fill:#3c8f7c;fill-opacity:1;fill-rule:nonzero;stroke:none"
         id="path114" /><path
         d="m 3920.3,2684 c 25.22,16.4 54.57,19.9 80.51,12.1 -4.6,-27.8 -20.45,-53.8 -45.66,-70.3 -25.22,-16.5 -54.58,-20 -80.52,-12.1 4.6,27.7 20.45,53.8 45.67,70.3"
         style="fill:#3c8f7c;fill-opacity:1;fill-rule:nonzero;stroke:none"
         id="path116" /><path
         d="m 5670.67,1807.7 16.91,1.1 c -24.35,447.3 139.84,868.2 281.87,1142.5 154.14,297.7 316.18,491.8 317.8,493.8 l -12.41,12.7 c -1.63,-1.9 -164.79,-197.4 -319.88,-496.8 -143.28,-276.6 -308.9,-701.3 -284.29,-1153.3"
         style="fill:#3c8f7c;fill-opacity:1;fill-rule:nonzero;stroke:none"
         id="path118" /><path
         d="m 6360.66,3470.7 c -38.61,-65 -94.04,-105.4 -150.32,-116.5 -9.51,67.7 4.26,143.9 42.88,209 38.61,65 94.04,105.4 150.32,116.4 9.51,-67.7 -4.27,-143.9 -42.88,-208.9"
         style="fill:#3c8f7c;fill-opacity:1;fill-rule:nonzero;stroke:none"
         id="path120" /><path
         d="m 6154.2,3392.8 c 2.76,-78.6 -20.72,-151.6 -60.06,-203.3 -42.68,43.4 -71.11,111.1 -73.87,189.7 -2.76,78.5 20.73,151.6 60.07,203.3 42.68,-43.4 71.11,-111.2 73.86,-189.7"
         style="fill:#3c8f7c;fill-opacity:1;fill-rule:nonzero;stroke:none"
         id="path122" /><path
         d="m 5989.4,3253 c 31.8,-67 37.67,-143.7 21.19,-210.7 -54.97,14.1 -106.08,57.4 -137.87,124.4 -31.79,67 -37.66,143.7 -21.19,210.7 54.98,-14.1 106.09,-57.4 137.87,-124.4"
         style="fill:#3c8f7c;fill-opacity:1;fill-rule:nonzero;stroke:none"
         id="path124" /><path
         d="m 5876.19,2909.4 c 15.23,-26.9 19.87,-58.9 14.87,-87.5 -23.44,4 -46.08,20.3 -61.3,47.3 -15.23,27 -19.87,58.9 -14.87,87.5 23.44,-4 46.08,-20.3 61.3,-47.3"
         style="fill:#3c8f7c;fill-opacity:1;fill-rule:nonzero;stroke:none"
         id="path126" /><path
         d="m 5827.34,2786.1 c 15.22,-27 19.87,-59 14.87,-87.6 -23.44,4 -46.08,20.4 -61.3,47.3 -15.23,27 -19.87,59 -14.87,87.6 23.43,-4 46.08,-20.4 61.3,-47.3"
         style="fill:#3c8f7c;fill-opacity:1;fill-rule:nonzero;stroke:none"
         id="path128" /><path
         d="m 6198.83,3186.2 c 57.68,-0.9 108.14,-30 141.14,-75.3 -36.86,-44.3 -89.77,-72 -147.45,-71.1 -57.68,0.8 -108.14,30 -141.13,75.3 36.85,44.3 89.76,71.9 147.44,71.1"
         style="fill:#3c8f7c;fill-opacity:1;fill-rule:nonzero;stroke:none"
         id="path130" /><path
         d="m 6105.2,3011.8 c 57.68,-0.8 108.14,-30 141.13,-75.3 -36.86,-44.3 -89.77,-71.9 -147.44,-71.1 -57.68,0.9 -108.15,30 -141.14,75.3 36.86,44.3 89.77,72 147.45,71.1"
         style="fill:#3c8f7c;fill-opacity:1;fill-rule:nonzero;stroke:none"
         id="path132" /><path
         d="m 5950.23,2774.2 c 37.54,-0.6 70.39,-19.5 91.87,-49 -23.99,-28.9 -58.43,-46.8 -95.97,-46.3 -37.54,0.6 -70.39,19.5 -91.86,49 23.99,28.9 58.43,46.8 95.96,46.3"
         style="fill:#3c8f7c;fill-opacity:1;fill-rule:nonzero;stroke:none"
         id="path134" /><path
         d="m 4212.39,1074.2 c 0,74.5 449.65,-13.4 487.06,88.1 37.41,101.4 -385.11,107.3 -385.11,244.5 0,137.2 215.32,41 341.58,41 126.26,0 -249.28,58.7 -249.28,107.3 0,48.6 131.76,23.1 131.76,74.7 0,51.6 -691.92,90.5 -610.94,216.7 80.98,126.2 452.96,-36.8 555.1,28.5 102.14,65.4 -545.66,136.6 -561.69,233.7 -16.03,97.1 477.32,-83.2 547.18,-13.4 69.87,69.9 -780.12,321 -744.51,505.5 35.62,184.5 644.25,-236.3 796.41,-191 152.16,45.3 -767.27,693.1 -553.6,945.4 213.67,252.4 621.58,-835.3 760.79,-796.5 139.21,38.9 -174.33,687.4 -32.13,800.2 142.21,112.8 550.38,-913.1 576.15,-1123.7 25.77,-210.7 77.57,453.1 300.95,530.8 223.38,77.6 6.47,-411.3 45.32,-560.2 38.85,-148.9 220.13,382 464.56,343.2 244.44,-38.9 -441.9,-524.5 -373.91,-666.9 67.98,-142.5 597.96,475.5 764.03,309.5 166.07,-166.1 -638.35,-627 -594.36,-753.2 44,-126.1 526.62,90.1 665.58,-48.9 138.97,-139 -518.46,-227.2 -605.63,-227.2 -87.17,0 -420.32,-109.6 -94.95,-88.1 325.37,21.6 -1630.36,-74.399 -1630.36,0"
         style="fill:#3c8f7c;fill-opacity:1;fill-rule:nonzero;stroke:none"
         id="path136" /><path
         d="m 5494.1,988.199 c 0,0 541.49,-28.996 699.13,70.301 157.65,99.2 33.23,176.5 33.23,176.5 0,0 500.71,10.9 499.45,129.5 -1.25,118.6 -122.62,111.8 -122.62,111.8 0,0 252.73,171.8 205.59,278.8 -72.43,164.5 -484.08,-121.9 -484.08,-121.9 0,0 134.95,160.2 25.91,197.7 C 6051.39,1933.7 5494.1,988.199 5494.1,988.199"
         style="fill:#50bfa5;fill-opacity:1;fill-rule:nonzero;stroke:none"
         id="path138" /><path
         d="m 6808.88,1755.1 c 47.14,-107 -205.59,-278.8 -205.59,-278.8 0,0 182.41,2.4 152.8,-113 -29.49,-114.9 -488.11,-153.7 -488.11,-153.7 0,0 160.12,-31.3 2.47,-130.6 C 6112.8,979.801 5494.1,988.199 5494.1,988.199 L 6808.88,1755.1"
         style="fill:#96d9c9;fill-opacity:1;fill-rule:nonzero;stroke:none"
         id="path140" /><path
         d="m 28083.7,2675.9 c 185.3,289.7 219.9,639.5 216.3,881.9 -3.9,263.2 -52.5,460.2 -53,462.2 l 13.4,4.7 c 0.5,-2 49.5,-200.5 53.5,-465.4 3.7,-244.8 -31.3,-598.2 -219,-891.4 l -11.2,8"
         style="fill:#3c8f7c;fill-opacity:1;fill-rule:nonzero;stroke:none"
         id="path142" /><path
         d="m 28201.4,4068.1 c 4.5,-59.5 30.9,-109.5 68.9,-140.2 32.4,41.5 50.6,98.3 46,157.9 -4.5,59.5 -30.9,109.5 -68.8,140.1 -32.5,-41.4 -50.7,-98.2 -46.1,-157.8"
         style="fill:#3c8f7c;fill-opacity:1;fill-rule:nonzero;stroke:none"
         id="path144" /><path
         d="m 28326.7,3930.6 c -31.5,-51.5 -41.2,-110.2 -31.2,-161.1 48.2,11.5 94.8,45.2 126.3,96.7 31.4,51.6 41.2,110.2 31.1,161.2 -48.2,-11.5 -94.8,-45.2 -126.2,-96.8"
         style="fill:#3c8f7c;fill-opacity:1;fill-rule:nonzero;stroke:none"
         id="path146" /><path
         d="m 28397.7,3768.9 c -48.9,-31.8 -82,-80.9 -94.7,-132.6 46.4,-13.2 100.8,-5.3 149.7,26.5 48.8,31.8 81.9,80.9 94.7,132.6 -46.5,13.2 -100.9,5.3 -149.7,-26.5"
         style="fill:#3c8f7c;fill-opacity:1;fill-rule:nonzero;stroke:none"
         id="path148" /><path
         d="m 28375.8,3543.6 c -38.7,-25.3 -62.7,-68.4 -69.2,-116.2 40.3,-17.1 85.6,-15 124.3,10.2 38.7,25.3 62.6,68.4 69.2,116.2 -40.3,17.1 -85.7,15 -124.3,-10.2"
         style="fill:#3c8f7c;fill-opacity:1;fill-rule:nonzero;stroke:none"
         id="path150" /><path
         d="m 28216,3810.5 c -43.5,23.2 -92.1,24.5 -133.8,7.8 11,-45 40.3,-85.3 83.8,-108.6 43.4,-23.2 92.1,-24.5 133.7,-7.7 -11,44.9 -40.2,85.3 -83.7,108.5"
         style="fill:#3c8f7c;fill-opacity:1;fill-rule:nonzero;stroke:none"
         id="path152" /><path
         d="m 28220.8,3654.9 c -43.5,23.3 -92.1,24.6 -133.8,7.8 11,-45 40.3,-85.3 83.8,-108.5 43.4,-23.3 92.1,-24.6 133.7,-7.8 -11,44.9 -40.2,85.3 -83.7,108.5"
         style="fill:#3c8f7c;fill-opacity:1;fill-rule:nonzero;stroke:none"
         id="path154" /><path
         d="m 28347.8,3296.1 c -23,-5.4 -42.1,-20.9 -53.6,-41.1 16.4,-13.7 38.5,-19.5 61.5,-14.2 23,5.4 42,20.9 53.5,41.1 -16.3,13.7 -38.4,19.6 -61.4,14.2"
         style="fill:#3c8f7c;fill-opacity:1;fill-rule:nonzero;stroke:none"
         id="path156" /><path
         d="m 28160.1,2471.2 c 424.3,101.5 747.9,415.3 944.6,660.8 213.6,266.4 328.1,512 329.2,514.4 l 17.3,-8.8 c -1.2,-2.5 -116.4,-249.9 -331.4,-518.1 -198.6,-247.9 -525.6,-564.9 -955.1,-667.7 l -4.6,19.4"
         style="fill:#3c8f7c;fill-opacity:1;fill-rule:nonzero;stroke:none"
         id="path158" /><path
         d="m 29428.2,3740.6 c -44.7,-64 -59.7,-140.5 -47.2,-209.4 66.6,8.5 131.7,46.8 176.4,110.8 44.7,64 59.7,140.4 47.2,209.4 -66.7,-8.6 -131.7,-46.8 -176.4,-110.8"
         style="fill:#3c8f7c;fill-opacity:1;fill-rule:nonzero;stroke:none"
         id="path160" /><path
         d="m 29439.5,3476.8 c -74,-19.6 -132.2,-68.2 -164.2,-129.2 57.5,-37.2 131.8,-50.8 205.8,-31.1 74,19.6 132.2,68.2 164.2,129.2 -57.5,37.2 -131.8,50.7 -205.8,31.1"
         style="fill:#3c8f7c;fill-opacity:1;fill-rule:nonzero;stroke:none"
         id="path162" /><path
         d="m 29376.6,3243.7 c -75,17.7 -148.5,2.3 -204,-36.4 35.4,-60.1 96.2,-107.2 171.2,-124.9 75,-17.7 148.5,-2.2 204,36.5 -35.4,60.1 -96.2,107.2 -171.2,124.8"
         style="fill:#3c8f7c;fill-opacity:1;fill-rule:nonzero;stroke:none"
         id="path164" /><path
         d="m 29207.5,3031.8 c -74.9,17.7 -148.5,2.2 -203.9,-36.5 35.3,-60.1 96.2,-107.2 171.2,-124.9 74.9,-17.6 148.5,-2.2 203.9,36.5 -35.3,60.1 -96.2,107.2 -171.2,124.9"
         style="fill:#3c8f7c;fill-opacity:1;fill-rule:nonzero;stroke:none"
         id="path166" /><path
         d="m 29258.1,3384.1 c 3.8,72.1 -19.9,140 -60.4,188.9 -45.1,-38.4 -75.6,-99.7 -79.4,-171.8 -3.8,-72.2 19.9,-140.1 60.5,-189 45,38.5 75.5,99.8 79.3,171.9"
         style="fill:#3c8f7c;fill-opacity:1;fill-rule:nonzero;stroke:none"
         id="path168" /><path
         d="m 29081.8,3164.9 c 4.9,72 -17.8,140.3 -57.6,190 -45.6,-37.6 -77,-98.4 -81.9,-170.4 -4.9,-72 17.8,-140.4 57.6,-190 45.6,37.6 77,98.3 81.9,170.4"
         style="fill:#3c8f7c;fill-opacity:1;fill-rule:nonzero;stroke:none"
         id="path170" /><path
         d="m 28936.1,2822.7 c -27.4,17.9 -59.2,21.7 -87.4,13.2 5,-30.2 22.2,-58.4 49.6,-76.3 27.3,-17.9 59.2,-21.6 87.3,-13.2 -5,30.2 -22.2,58.4 -49.5,76.3"
         style="fill:#3c8f7c;fill-opacity:1;fill-rule:nonzero;stroke:none"
         id="path172" /><path
         d="m 27037,1871.9 -18.4,1.3 c 26.4,485.3 -151.7,941.9 -305.8,1239.5 -167.2,323 -343,533.7 -344.8,535.8 l 13.5,13.8 c 1.7,-2.1 178.8,-214.1 347,-539 155.5,-300.1 335.2,-760.9 308.5,-1251.4"
         style="fill:#3c8f7c;fill-opacity:1;fill-rule:nonzero;stroke:none"
         id="path174" /><path
         d="m 26288.3,3676.3 c 41.9,-70.6 102.1,-114.4 163.1,-126.4 10.4,73.5 -4.6,156.1 -46.5,226.7 -41.9,70.6 -102,114.4 -163.1,126.4 -10.3,-73.5 4.7,-156.2 46.5,-226.7"
         style="fill:#3c8f7c;fill-opacity:1;fill-rule:nonzero;stroke:none"
         id="path176" /><path
         d="m 26512.3,3591.8 c -2.9,-85.3 22.5,-164.5 65.2,-220.6 46.3,47.1 77.2,120.6 80.2,205.8 3,85.2 -22.5,164.5 -65.2,220.6 -46.3,-47.1 -77.2,-120.6 -80.2,-205.8"
         style="fill:#3c8f7c;fill-opacity:1;fill-rule:nonzero;stroke:none"
         id="path178" /><path
         d="m 26691.2,3440.1 c -34.5,-72.7 -40.9,-155.9 -23,-228.6 59.6,15.3 115.1,62.3 149.5,135 34.5,72.7 40.9,155.9 23,228.6 -59.6,-15.4 -115.1,-62.3 -149.5,-135"
         style="fill:#3c8f7c;fill-opacity:1;fill-rule:nonzero;stroke:none"
         id="path180" /><path
         d="m 26814,3067.3 c -16.5,-29.2 -21.6,-63.9 -16.1,-95 25.4,4.4 50,22.1 66.5,51.4 16.5,29.2 21.5,63.9 16.1,95 -25.4,-4.4 -50,-22.1 -66.5,-51.4"
         style="fill:#3c8f7c;fill-opacity:1;fill-rule:nonzero;stroke:none"
         id="path182" /><path
         d="m 26867,2933.5 c -16.5,-29.3 -21.6,-63.9 -16.1,-95 25.4,4.4 49.9,22.1 66.5,51.3 16.5,29.3 21.5,64 16.1,95 -25.4,-4.3 -50,-22.1 -66.5,-51.3"
         style="fill:#3c8f7c;fill-opacity:1;fill-rule:nonzero;stroke:none"
         id="path184" /><path
         d="m 26463.9,3367.6 c -62.6,-0.9 -117.3,-32.5 -153.1,-81.7 40,-48.1 97.4,-78 160,-77.1 62.6,0.9 117.3,32.5 153.1,81.7 -40,48.1 -97.4,78 -160,77.1"
         style="fill:#3c8f7c;fill-opacity:1;fill-rule:nonzero;stroke:none"
         id="path186" /><path
         d="m 26565.5,3178.4 c -62.6,-0.9 -117.3,-32.5 -153.1,-81.7 40,-48.1 97.4,-78 160,-77.1 62.5,0.9 117.3,32.5 153.1,81.7 -40,48.1 -97.4,78 -160,77.1"
         style="fill:#3c8f7c;fill-opacity:1;fill-rule:nonzero;stroke:none"
         id="path188" /><path
         d="m 26733.7,2920.6 c -40.8,-0.6 -76.4,-21.2 -99.7,-53.2 26,-31.3 63.4,-50.8 104.1,-50.2 40.7,0.6 76.4,21.2 99.7,53.2 -26.1,31.3 -63.4,50.8 -104.1,50.2"
         style="fill:#3c8f7c;fill-opacity:1;fill-rule:nonzero;stroke:none"
         id="path190" /><path
         d="m 28619.2,1076.2 c 0,80.8 -487.9,-14.6 -528.5,95.5 -40.6,110.1 417.9,116.4 417.9,265.3 0,148.9 -233.7,44.5 -370.7,44.5 -136.9,0 270.5,63.7 270.5,116.4 0,52.7 -143,25.1 -143,81.1 0,55.9 750.8,98.1 662.9,235.1 -87.9,136.9 -491.4,-39.9 -602.3,30.9 -110.8,70.9 592.1,148.2 609.5,253.6 17.4,105.3 -517.9,-90.3 -593.7,-14.5 -75.8,75.8 846.4,348.2 807.8,548.4 -38.7,200.2 -699,-256.4 -864.1,-207.3 -165.1,49.2 832.4,752 600.6,1025.8 -231.8,273.9 -674.4,-906.3 -825.4,-864.2 -151.1,42.2 189.1,745.8 34.8,868.2 -154.2,122.3 -597.1,-990.7 -625.1,-1219.2 -27.9,-228.6 -84.1,491.6 -326.5,575.9 -242.4,84.2 -7,-446.2 -49.2,-607.8 -42.1,-161.5 -238.8,414.5 -504,372.4 -265.2,-42.2 479.4,-569.1 405.7,-723.6 -73.8,-154.6 -648.8,515.9 -829,335.8 -180.2,-180.2 692.6,-680.3 644.9,-817.1 -47.7,-136.9 -571.4,97.6 -722.1,-53.1 -150.8,-150.8 562.5,-246.6 657,-246.6 94.6,0 456.1,-118.9 103.1,-95.5 -353.1,23.4 1768.9,-80.798 1768.9,0"
         style="fill:#3c8f7c;fill-opacity:1;fill-rule:nonzero;stroke:none"
         id="path192" /><path
         d="m 27228.5,982.902 c 0,0 -587.5,-31.5 -758.5,76.198 -171,107.7 -36,191.5 -36,191.5 0,0 -543.3,11.8 -541.9,140.5 1.3,128.7 133,121.3 133,121.3 0,0 -274.2,186.4 -223.1,302.5 78.6,178.5 525.3,-132.3 525.3,-132.3 0,0 -146.5,173.9 -28.1,214.5 324.7,111.6 929.3,-914.198 929.3,-914.198"
         style="fill:#50bfa5;fill-opacity:1;fill-rule:nonzero;stroke:none"
         id="path194" /><path
         d="m 25802,1814.9 c -51.1,-116.1 223.1,-302.5 223.1,-302.5 0,0 -197.9,2.6 -165.8,-122.5 32,-124.7 529.6,-166.8 529.6,-166.8 0,0 -173.7,-34 -2.7,-141.7 171.1,-107.701 842.3,-98.498 842.3,-98.498 L 25802,1814.9"
         style="fill:#3c8f7c;fill-opacity:1;fill-rule:nonzero;stroke:none"
         id="path196" /><path
         d="m 3277.42,5712.6 c 0.88,29.3 41.29,52 62.73,26 21.35,-25.8 20.45,-8.4 41.26,-64.4 59.73,-160.7 147.53,-316.1 249.72,-452 195.8,-260.3 389.64,-391.7 609.71,-521.8 -90.68,204.3 -151.42,422.4 -159.16,642.4 -2.81,80.2 -1.27,163.3 33.03,236.9 9.57,20.6 46.38,16.3 50.11,-6.6 18.49,-113.5 -8.72,-199.1 28.02,-402.3 87.68,-484.8 434.71,-999 769.47,-1359.1 -64.19,609.6 -95.31,1302.4 19.5,1917.3 18.83,100.9 48.77,196.8 76.6,295.3 6.55,23.2 39.49,13.2 35.43,-9.8 -5.78,-32.7 -60.48,-455.9 -63.78,-485 -53.06,-468.3 -42.46,-987.1 -1.16,-1460.2 259.67,351.7 433.49,763 514.76,1192.5 24.03,126.9 30.44,258 64.12,382.6 4.64,17.2 33,19 36.53,0 34.59,-186.7 -34.68,-516.9 -85.16,-696.3 -102.3,-363.7 -265.98,-689.6 -489.76,-980.8 -8.7,-11.3 359.38,-2856.5 349.48,-2892.6 -16.68,-60.7 -122.54,-103.399 -138.96,4.4 -6.69,43.9 -208.93,1774 -300.19,2575.3 -34.49,19 -56.67,52.8 -145.37,152.5 -205.31,230.8 -408.32,518 -544.01,788.8 -81.42,4.6 -669.41,290.7 -961.08,942.2 -8.41,18.7 -46.28,106.9 -51.7,126.6 -4.64,16.8 -0.65,31.4 -0.14,48.1"
         style="fill:#184655;fill-opacity:1;fill-rule:nonzero;stroke:none"
         id="path198" /><path
         d="m 5165.79,6635.1 c -6.7,87.6 -10.18,177.1 -10.18,268.2 0,1016.3 431.33,1840.1 963.41,1840.1 532.07,0 963.41,-823.8 963.41,-1840.1 0,-91.1 -3.49,-180.6 -10.18,-268.2 H 5165.79"
         style="fill:#3c8f7c;fill-opacity:1;fill-rule:nonzero;stroke:none"
         id="path200" /><path
         d="m 4075.47,7087.3 c -6.7,123.5 -10.18,249.8 -10.18,378.3 0,1433.2 431.33,2595.1 963.41,2595.1 532.08,0 963.41,-1161.9 963.41,-2595.1 0,-128.5 -3.49,-254.8 -10.19,-378.3 H 4075.47"
         style="fill:#50bfa5;fill-opacity:1;fill-rule:nonzero;stroke:none"
         id="path202" /><path
         d="m 4428.21,5497.1 c 6.7,87.6 10.19,177.2 10.19,268.3 0,1016.2 -431.33,1840.1 -963.41,1840.1 -532.07,0 -963.41,-823.9 -963.41,-1840.1 0,-91.1 3.48,-180.7 10.18,-268.3 h 1906.45"
         style="fill:#50bfa5;fill-opacity:1;fill-rule:nonzero;stroke:none"
         id="path204" /><path
         d="m 5970.08,5497.1 c 8.49,123.5 12.91,249.8 12.91,378.3 0,1433.2 -546.8,2595.1 -1221.31,2595.1 -674.51,0 -1221.31,-1161.9 -1221.31,-2595.1 0,-128.5 4.42,-254.8 12.91,-378.3 h 2416.8"
         style="fill:#3c8f7c;fill-opacity:1;fill-rule:nonzero;stroke:none"
         id="path206" /><path
         d="m 5032.34,8470.5 c 337.12,0 638.28,-368.6 837.04,-946.7 101.21,53.1 208.75,81.7 320.22,81.7 598.52,0 1083.71,-823.9 1083.71,-1840.1 0,-91.1 -3.92,-180.7 -11.45,-268.3 H 3960.09 c -7.53,123.5 -11.45,249.8 -11.45,378.3 0,1433.2 485.19,2595.1 1083.7,2595.1"
         style="fill:#50bfa5;fill-opacity:1;fill-rule:nonzero;stroke:none"
         id="path208" /><path
         d="m 15935.8,2988.3 c -47.6,-11.2 -91.6,3.3 -98.4,32.4 l -1019.2,4347.7 c -6.8,29 26.3,61.6 73.8,72.8 47.6,11.1 91.7,-3.4 98.5,-32.4 L 16009.6,3061 c 6.8,-29 -26.3,-61.5 -73.8,-72.7"
         style="fill:#184655;fill-opacity:1;fill-rule:nonzero;stroke:none"
         id="path210" /><path
         d="m 15936.2,3068.3 c -3.7,13.3 -12.5,18.9 -24.8,15.8 -11.9,-3 -18.4,-11.8 -15,-24.6 3.3,-12.4 12.2,-17.9 24.7,-15.3 13.1,2.8 16.6,12.5 15.1,24.1 z m -267.5,-896.6 c 42.8,10 83.7,22.1 125.5,28.7 38.6,6.1 71.6,20 97.6,48.7 62,68.8 86.6,150.4 77.4,241.6 -2.7,27.6 -12.9,54.4 -19.9,81.5 -46.1,179.8 -92.2,359.6 -138.3,539.5 -3.7,14.1 -7.5,28.3 -10.6,42.6 -1.1,5 -0.3,10.4 1.8,16.8 9,-19 24.4,-17.7 39.1,-14.4 36.8,8.2 73.5,16.9 110,26.6 12.1,3.2 28.2,7.1 23.6,25.9 1.6,0.1 6.7,-5.1 7.6,-9.6 29.9,-139 59.3,-278.2 89,-417.3 8.6,-40.6 17.6,-81.1 26.2,-121.8 9,-42.3 13.5,-86.1 27.3,-126.8 30.7,-90.2 91.4,-154.6 181.3,-188.9 37.3,-14.2 73.9,-11.4 112.1,3.2 35.7,13.5 74.4,19.2 111.9,27.4 3.2,0.8 9.6,-4.2 11.3,-7.9 3.5,-7.7 5,-16.3 6.9,-24.6 43.7,-186.1 87.4,-372.2 131,-558.3 14.2,-60.4 8.5,-120 -8.8,-178.9 -29,-98.3 -82.4,-183.3 -145,-263.1 -26.3,-33.5 -54.1,-66.2 -83.6,-97 -51.9,-54.3 -115.1,-69.4 -185.8,-43.6 -107.2,39.1 -208.9,89.3 -298.9,160.5 -58.1,45.9 -107.7,99.2 -137,168.6 -5.7,13.5 -10.9,27.3 -14.2,41.5 -44.7,189.6 -89.1,379.3 -133.3,569 -2.3,9.9 -2.9,20.2 -4.2,30.1"
         style="fill:#f8c48b;fill-opacity:1;fill-rule:nonzero;stroke:none"
         id="path212" /><path
         d="m 16548.5,2342.9 c -1.9,8.3 -3.4,16.9 -6.9,24.6 -1.7,3.7 -8.1,8.6 -11.3,7.9 -37.5,-8.2 -76.2,-13.9 -111.9,-27.4 -38.2,-14.6 -74.8,-17.4 -112.1,-3.2 -89.9,34.3 -150.6,98.7 -181.3,188.9 -13.8,40.7 -18.3,84.5 -27.3,126.8 -8.6,40.7 -17.6,81.2 -26.2,121.8 -29.7,139.1 -59.1,278.3 -89,417.3 -0.9,4.5 -6,9.7 -7.6,9.6 4.6,-18.8 -11.5,-22.7 -23.6,-25.9 -19.2,-5.1 -38.5,-9.9 -57.8,-14.5 l 19.8,-84.6 c 11.2,2 19.4,-3.4 22.9,-15.9 1.4,-11.1 -1.9,-20.3 -13.7,-23.5 l 433.9,-1851 c 31.1,7.4 59.8,24.7 85.7,51.8 29.5,30.8 57.3,63.5 83.6,97 62.6,79.8 116,164.8 145,263.1 17.3,58.9 23,118.5 8.8,178.9 -43.6,186.1 -87.3,372.2 -131,558.3"
         style="fill:#ee944c;fill-opacity:1;fill-rule:nonzero;stroke:none"
         id="path214" /><path
         d="m 13861.5,1401.8 c -12.9,92.6 -16.9,234.8 -15.6,399 l -288.1,-64.7 c 33.7,-232.4 24,-348.7 24,-348.7 l -8.1,-73.4 -0.2,-217 h 709.4 c 0,0 -150.5,67.5 -361.2,200.8 -15.5,9.9 -51.4,41.3 -60.2,104"
         style="fill:#f7a491;fill-opacity:1;fill-rule:nonzero;stroke:none"
         id="path216" /><path
         d="m 12767.1,1474.3 94.2,270.2 h -246.8 c -12.9,-173.4 -17.7,-290.5 -17.7,-290.5 l -62.7,-177.6 -63.8,-211.1 c 0,0 210,-54.1 320.2,6.8 l -12.3,210.1 -11.1,192.1"
         style="fill:#f7a491;fill-opacity:1;fill-rule:nonzero;stroke:none"
         id="path218" /><path
         d="m 12778.2,1283 c -96.9,-43.1 -201.2,-17.1 -243.2,-3.3 l -13.9,-37.6 -53.4,-178.1 c 0,0 212.6,-65.699 322.8,-4.9 l -12.3,223.9"
         style="fill:#f7cc7f;fill-opacity:1;fill-rule:nonzero;stroke:none"
         id="path220" /><path
         d="m 13566.2,1043.2 h 737.5 c 27.3,2.4 33.9,24.7 24.5,38.5 -19.5,28.2 -105.6,49 -202.3,94.1 -169.6,-17.9 -525.5,99.2 -552.3,138.6 -15.5,-78.8 -22.6,-267.9 -7.4,-271.2"
         style="fill:#f7cc7f;fill-opacity:1;fill-rule:nonzero;stroke:none"
         id="path222" /><path
         d="m 13581.9,5193.5 -390.9,-2395.6 -419.9,-1392.8 -183.8,22.1 c 0,0 -13,663.1 87.5,1084.5 55,230.7 82.2,467 89.5,704.1 13,423.9 44.7,1022.7 121.8,1331.5 107.2,429.3 227.9,656.5 227.9,656.5 l 467.9,-10.3"
         style="fill:#355389;fill-opacity:1;fill-rule:nonzero;stroke:none"
         id="path224" /><path
         d="m 13197.1,4653 c -42.5,-512.1 384.8,-3203.5 384.8,-3203.5 h 274.2 c 0,0 225.2,2813.7 179.3,3087.6 -46,273.9 -182.7,720.1 -182.7,720.1 l -614.7,-48 c 0,0 -29.4,-417.2 -40.9,-556.2"
         style="fill:#466eb6;fill-opacity:1;fill-rule:nonzero;stroke:none"
         id="path226" /><path
         d="m 13479.4,7575.4 c 0,-61.9 -23.1,-112 -51.6,-112 -28.5,0 -51.7,50.1 -51.7,112 0,61.9 23.2,112 51.7,112 28.5,0 51.6,-50.1 51.6,-112"
         style="fill:#f7a491;fill-opacity:1;fill-rule:nonzero;stroke:none"
         id="path228" /><path
         d="m 13544.5,6848.9 c -423.8,171 -638.5,114.4 -712,77.1 l 3.6,-645.4 c 12,-54.1 -36,-1631.5 -51,-1816.2 0,0 1114.4,-112.1 1313.1,117.7 0,0 -246.5,906.6 -215.9,1140.1 47.9,365.7 -301.4,1112 -337.8,1126.7"
         style="fill:#f47458;fill-opacity:1;fill-rule:nonzero;stroke:none"
         id="path230" /><path
         d="m 13924.4,6395 c 0,0 185.1,-221.1 211.2,-242.3 0,0 524.2,252 740.3,379.7 2.4,1.9 4.9,3.7 7.3,5.7 4,3.3 10,5.6 9.7,12.1 -1.6,29.4 2,130.1 5.3,173.4 0.9,11.9 4.4,23.4 10.3,33.8 12.9,23.2 37,66.5 37,66.5 l 12.1,-51.5 c 3.7,-16 20,-26.5 36.1,-23.3 h 0.3 c 16.4,3.2 30.8,11.8 45.6,20.6 19.4,11.6 43.3,17.9 66,20.6 22.1,2.7 39.5,-9.9 46.7,-32.8 4.4,-14 5.4,-30.4 13.5,-41.7 14.2,-19.4 73.8,-214.1 44.5,-241.4 -14.6,-13.7 -101.8,-51.7 -138,-60.9 -26.3,-6.6 -50.4,-19.2 -69.5,-34.5 -4.2,-3.4 -8.7,-6.3 -13.4,-9.1 l 0.1,-0.1 c -150.7,-106.4 -651,-472.8 -651,-472.8 0,0 -249.7,-161.1 -297.6,-135.7 -47.9,25.4 -395.6,437 -395.6,437 l 279.1,196.7"
         style="fill:#f7a491;fill-opacity:1;fill-rule:nonzero;stroke:none"
         id="path232" /><path
         d="m 13280.7,7328.7 c 0,0 9.9,-238.1 -11.5,-328.4 -21.4,-90.2 -49.9,-97.1 133.7,-124.5 72.1,-10.8 141.6,-26.9 141.6,-26.9 0,0 -18.8,132.5 -21.6,188.5 -4.7,92.2 21.2,376.7 21.2,376.7 l -263.4,-85.4"
         style="fill:#f7a491;fill-opacity:1;fill-rule:nonzero;stroke:none"
         id="path234" /><path
         d="m 13420.5,7210.2 c 37.8,-20.4 73.1,-32.5 105.6,-37.5 6.2,112.5 18,241.4 18,241.4 l -251.3,-81.5 c 29.2,-48.7 70.6,-91.5 127.7,-122.4"
         style="fill:#f47458;fill-opacity:1;fill-rule:nonzero;stroke:none"
         id="path236" /><path
         d="m 13310.5,6586.6 c -1.8,-225 385.2,-635.1 385.2,-635.1 0,0 349.5,277.5 399.9,373.6 0,0 -375,398.1 -399,422 -109,108.3 -216.5,83.2 -284.7,58.5 -54.7,-19.8 -101.4,-219 -101.4,-219"
         style="fill:#b75742;fill-opacity:1;fill-rule:nonzero;stroke:none"
         id="path238" /><path
         d="m 13152.1,6494.8 c 212.1,185.1 292.1,593.2 153.7,836.4 96.1,125 157.7,102.7 136.3,258.3 -42.3,306.8 384.8,491.6 65.8,573.2 -322.4,64.7 -590.5,-133.4 -737.9,-330.1 -66.5,-88.6 -149.2,-165.3 -247.4,-219.1 -194.7,-106.8 -297.4,-363 -194,-630.1 -155.9,-87.5 -292.1,-340.5 -188.9,-550.5 24.8,-50.4 74.8,-109.4 76.4,-123.8 -3,17.8 -145.3,-450.6 386.1,-610.2 542.2,-162.7 653.9,357.8 549.9,795.9"
         style="fill:#184655;fill-opacity:1;fill-rule:nonzero;stroke:none"
         id="path240" /><path
         d="m 12997,7840.4 c -62.8,-258.9 277,-446.9 546,-453.8 174.9,-4.4 255.2,13.5 283.5,197.8 45.8,298.8 -77.3,481 -249.8,556.4 -222.6,97.3 -527.9,-86.9 -579.7,-300.4"
         style="fill:#184655;fill-opacity:1;fill-rule:nonzero;stroke:none"
         id="path242" /><path
         d="m 13392.1,8014.5 c 0,0 -118.3,-39.8 -181.3,-159.2 -63,-119.4 -31.7,-501.9 230.6,-628 262.3,-126.1 382.9,160.3 363.8,371.6 -19,211.4 -95,487.9 -413.1,415.6"
         style="fill:#f7a491;fill-opacity:1;fill-rule:nonzero;stroke:none"
         id="path244" /><path
         d="m 13556,7425.8 186.1,2.9 c 0,0 -3.2,-72.1 -85,-75.7 -99.8,-4.5 -101.1,72.8 -101.1,72.8"
         style="fill:#ffffff;fill-opacity:1;fill-rule:nonzero;stroke:none"
         id="path246" /><path
         d="m 13117.6,7565.9 c -38.8,197.6 -23.6,347.4 116.8,419.7 140.4,72.3 260.4,144 386.1,14.1 l 28.4,-16 c 0,0 -237.1,-65.6 -250.4,-191.5 -13.2,-125.9 -139.2,-275.6 -119.8,-337.5 19.4,-61.8 41.8,-185.2 41.8,-185.2 l -52,42.7 c 0,0 -112.1,56.1 -150.9,253.7"
         style="fill:#184655;fill-opacity:1;fill-rule:nonzero;stroke:none"
         id="path248" /><path
         d="m 13362,7641.5 c 19.6,-54.5 4.8,-109.3 -33.1,-122.3 -37.8,-13.1 -84.4,20.6 -104,75.2 -19.6,54.6 -4.8,109.4 33.1,122.4 37.8,13 84.4,-20.7 104,-75.3"
         style="fill:#f7a491;fill-opacity:1;fill-rule:nonzero;stroke:none"
         id="path250" /><path
         d="m 17730.6,4530.1 c 0,0 -210.7,-466.3 -437.9,-705.6 V 3753 l 341.1,497.6 96.8,279.5"
         style="fill:#184655;fill-opacity:1;fill-rule:nonzero;stroke:none"
         id="path252" /><path
         d="m 17953.5,5345.9 c 1.7,238.5 -52.1,328.2 -52.9,314.2 -1.9,-33.3 2.6,-96.3 5.1,-180.3 0,-10.3 -2.2,-533 -159,-912.5 -0.8,-1.9 -1.7,-4 -2.5,-5.9 -1.6,-3.8 -3.2,-7.4 -4.8,-11.1 -3.2,-7.3 -6.3,-14.4 -9.3,-21.5 -6.9,-15.3 -12.4,-27.8 -16.8,-38.4 -172,-391.3 -228.6,-443.8 -420.6,-665.9 -0.2,613 -42.1,1305.3 -221,1904.7 -29.3,98.3 -69.2,190.5 -107.2,285.6 -8.9,22.4 -40.7,9 -34.2,-13.5 9.2,-32 251.2,-890 239.6,-2033.2 -0.2,-14.3 -57.1,-2878.6 -43.4,-2913.4 23,-58.598 132.7,-89.899 137.7,19 2,44.4 21.2,1786.1 27.7,2592.6 31.5,20 466,664.2 559.6,1018.6 76.8,290.5 100.9,506.4 102,660.5 l 0.1,0.4 -0.1,0.1"
         style="fill:#184655;fill-opacity:1;fill-rule:nonzero;stroke:none"
         id="path254" /><path
         d="m 16887.8,6158.8 c 42.1,-46.9 60.1,-110.1 54.4,-171.8 -56.7,-4.9 -114.1,16 -156.2,63 -42,46.9 -60,110.1 -54.3,171.8 56.6,4.9 114.1,-16.1 156.1,-63"
         style="fill:#3c8f7c;fill-opacity:1;fill-rule:nonzero;stroke:none"
         id="path256" /><path
         d="m 17106.5,6168.1 c -24.8,-81 -84.9,-145.5 -159.9,-181.8 -44.9,61.7 -60.7,142.3 -36,223.2 24.8,81 84.9,145.5 159.9,181.8 44.9,-61.7 60.7,-142.3 36,-223.2"
         style="fill:#50bfa5;fill-opacity:1;fill-rule:nonzero;stroke:none"
         id="path258" /><path
         d="m 17865.7,5767.5 c 34.8,-38.7 49.6,-90.9 44.9,-141.9 -46.8,-4 -94.2,13.3 -129,52.1 -34.7,38.7 -49.5,90.9 -44.8,141.9 46.8,4 94.2,-13.3 128.9,-52.1"
         style="fill:#3c8f7c;fill-opacity:1;fill-rule:nonzero;stroke:none"
         id="path260" /><path
         d="m 18042.3,5775.2 c -20.5,-66.9 -70.2,-120.2 -132.1,-150.2 -37.1,51 -50.1,117.6 -29.7,184.4 20.5,66.9 70.1,120.2 132,150.2 37.2,-51 50.2,-117.6 29.8,-184.4"
         style="fill:#50bfa5;fill-opacity:1;fill-rule:nonzero;stroke:none"
         id="path262" /><path
         d="m 17686,4809.4 c 49.9,-14.8 89.8,-51.5 112.5,-97.4 -37.7,-28 -87.2,-38 -137.1,-23.2 -49.9,14.9 -89.9,51.5 -112.5,97.4 37.7,28 87.2,38.1 137.1,23.2"
         style="fill:#3c8f7c;fill-opacity:1;fill-rule:nonzero;stroke:none"
         id="path264" /><path
         d="m 17832.4,4908.3 c 17.6,-67.6 3.1,-139 -33.9,-197 -58.3,24 -104.3,73.9 -121.9,141.5 -17.5,67.7 -3.1,139.1 33.9,197.1 58.3,-24 104.3,-73.9 121.9,-141.6"
         style="fill:#50bfa5;fill-opacity:1;fill-rule:nonzero;stroke:none"
         id="path266" /><path
         d="m 17058.8,4014.9 c 46.9,3.3 92.3,-15 126,-46.5 -23,-35.6 -61.6,-59.8 -108.4,-63.1 -46.8,-3.4 -92.2,14.9 -126,46.5 23,35.5 61.6,59.8 108.4,63.1"
         style="fill:#3c8f7c;fill-opacity:1;fill-rule:nonzero;stroke:none"
         id="path268" /><path
         d="m 17151,4144.9 c 36.3,-51.5 46.9,-116.4 34,-177.1 -56.9,1.7 -111.5,29.2 -147.8,80.8 -36.4,51.5 -46.9,116.4 -34.1,177.1 56.9,-1.7 111.6,-29.3 147.9,-80.8"
         style="fill:#50bfa5;fill-opacity:1;fill-rule:nonzero;stroke:none"
         id="path270" /><path
         d="m 16971.2,5045.3 c 49.8,15.2 103.3,6.7 147.6,-19 -16,-44.2 -51.7,-79.9 -101.5,-95.1 -49.8,-15.2 -103.3,-6.7 -147.6,19.1 16,44.1 51.7,79.8 101.5,95"
         style="fill:#3c8f7c;fill-opacity:1;fill-rule:nonzero;stroke:none"
         id="path272" /><path
         d="m 17038.6,5208.7 c 52,-46.7 79.4,-114.2 80.6,-183 -61.9,-12.2 -127.7,4 -179.8,50.7 -52,46.7 -79.5,114.1 -80.6,182.9 61.9,12.2 127.7,-3.9 179.8,-50.6"
         style="fill:#50bfa5;fill-opacity:1;fill-rule:nonzero;stroke:none"
         id="path274" /><path
         d="m 18020.9,5270.6 c -14.4,-33.7 -43.3,-58.8 -77.2,-71 -16.6,28.6 -19.7,64.1 -5.4,97.9 14.4,33.8 43.3,58.8 77.3,71.1 16.6,-28.7 19.7,-64.2 5.3,-98"
         style="fill:#3c8f7c;fill-opacity:1;fill-rule:nonzero;stroke:none"
         id="path276" /><path
         d="m 18078.5,5160.2 c -48.8,-7 -97.7,8.8 -135.3,39.4 21.4,39 60.1,67.2 108.9,74.1 48.8,6.9 97.7,-8.9 135.4,-39.4 -21.5,-39 -60.1,-67.2 -109,-74.1"
         style="fill:#50bfa5;fill-opacity:1;fill-rule:nonzero;stroke:none"
         id="path278" /><path
         d="m 17149.4,5719.1 c -2.9,-36.6 -22.3,-69.6 -50.6,-92 -24.8,21.9 -39.1,54.5 -36.2,91.1 2.8,36.6 22.2,69.6 50.5,92 24.9,-21.9 39.1,-54.5 36.3,-91.1"
         style="fill:#3c8f7c;fill-opacity:1;fill-rule:nonzero;stroke:none"
         id="path280" /><path
         d="m 17239.2,5632.8 c -44,-22.2 -95.4,-22.8 -140.9,-5.8 8,43.8 35.6,82.8 79.6,105 44.1,22.1 95.5,22.7 140.9,5.7 -7.9,-43.7 -35.5,-82.8 -79.6,-104.9"
         style="fill:#50bfa5;fill-opacity:1;fill-rule:nonzero;stroke:none"
         id="path282" /><path
         d="m 17737,4277.2 c -19.8,-20.9 -47.8,-31.4 -76.1,-31.1 -4.3,25.5 3.1,52.4 22.8,73.3 19.8,20.8 47.8,31.3 76.1,31.1 4.3,-25.6 -3.1,-52.5 -22.8,-73.3"
         style="fill:#3c8f7c;fill-opacity:1;fill-rule:nonzero;stroke:none"
         id="path284" /><path
         d="m 17749.2,4180.4 c -37.7,8.2 -69.3,33.1 -88.6,65.8 26.4,22.8 62.4,33 100.1,24.7 37.7,-8.2 69.3,-33.1 88.6,-65.8 -26.4,-22.7 -62.4,-32.9 -100.1,-24.7"
         style="fill:#50bfa5;fill-opacity:1;fill-rule:nonzero;stroke:none"
         id="path286" /><path
         d="m 17312.1,4734.6 c -9.4,-27.1 -30.7,-48.2 -56.6,-59.5 -14.4,21.5 -18.7,49 -9.2,76.1 9.4,27.2 30.7,48.3 56.6,59.6 14.4,-21.5 18.7,-49.1 9.2,-76.2"
         style="fill:#3c8f7c;fill-opacity:1;fill-rule:nonzero;stroke:none"
         id="path288" /><path
         d="m 17362.9,4651.4 c -37.7,-8 -76.7,1.8 -107.7,23.7 14.7,31.5 43.3,55.6 81.1,63.6 37.8,7.9 76.8,-1.9 107.8,-23.8 -14.7,-31.5 -43.4,-55.6 -81.2,-63.5"
         style="fill:#50bfa5;fill-opacity:1;fill-rule:nonzero;stroke:none"
         id="path290" /><path
         d="m 16126.1,1317.2 c 77.6,53.3 114.1,127.6 208,132.3 60.9,3.1 125.5,3.4 177.1,35.9 70.7,44.4 157.8,76.9 222.4,129.8 52.9,43.2 124.2,54.7 191.8,64.6 110.5,16.1 221.1,32.3 331.6,48.5 40.6,5.9 81.7,11.9 122.5,6.9 149.3,-18.1 247.4,-172.6 391.8,-214.9 68.2,-20 143.9,-13.9 207.2,-46 81.9,-41.5 121.9,-135.8 141.8,-225.5 12.3,-54.9 122.9,-86.6 148,-195.6 9.6,-21.4 -70.3,10.1 -90.5,-2 -20.1,-12.1 -44.6,-13.7 -68.1,-14.9 -588.6,-31.5 -1178.5,-37.999 -1767.6,-19.5 -71.1,2.3 -443.7,-38.8 -490.4,26.4 -54.4,75.7 216.1,234 274.4,274"
         style="fill:#b75742;fill-opacity:1;fill-rule:nonzero;stroke:none"
         id="path292" /><path
         d="m 20197.3,5072.5 c 0,0 -138.8,35.1 -161.8,44.3 -23,9.2 -113.3,25.3 -120.6,13.8 -7.4,-11.5 54.7,-61.3 59.3,-62.9 4.6,-1.5 102.7,-38.3 106.5,-38.3 3.9,0 116.6,43.1 116.6,43.1"
         style="fill:#f7a491;fill-opacity:1;fill-rule:nonzero;stroke:none"
         id="path294" /><path
         d="m 21612,6147.4 c -34.6,-184 -205.3,-113.7 -241.9,-120.2 l -341.1,-723 -787.6,-231.2 -193.5,-2.1 c 9.6,-7.2 -135,1 -191.5,-30.2 3.3,-9.4 19.4,-21.5 23.6,-30.7 44.6,-87.2 109.8,-156.4 132.5,-252.3 35.7,5.2 85.5,13.9 132.2,35.7 53.2,24.9 197.6,81.9 197.6,81.9 0.2,0 834.9,165.6 882.7,201 41.9,31 500,878.9 387,1071.1"
         style="fill:#f7a491;fill-opacity:1;fill-rule:nonzero;stroke:none"
         id="path296" /><path
         d="m 21407.8,1464.3 13.8,-228.4 c 5.1,-28.9 25,-100.4 25,-126.7 0,-98.8 -469.2,83.9 -364.1,127.7 9.5,3.9 59.4,33.9 62.5,67.6 4.9,51.8 17.1,156.6 17.1,156.6 l 245.7,3.2"
         style="fill:#f7a491;fill-opacity:1;fill-rule:nonzero;stroke:none"
         id="path298" /><path
         d="m 21083.7,1237.8 c 0,0 110.1,-30.2 166.6,-37.8 56.4,-7.5 130.8,56.1 170.7,38.9 43.9,-18.9 42.2,-189.2 42.2,-189.2 0,0 -590.8,-48.5 -756.9,1.7 -65.8,19.8 152.2,116 377.4,186.4"
         style="fill:#f47458;fill-opacity:1;fill-rule:nonzero;stroke:none"
         id="path300" /><path
         d="m 22183.7,5077.4 c 0,0 51.8,-346.1 -13,-498 -64.8,-151.8 -555.9,-1641.5 -562.4,-1763 -6.5,-121.4 -169.8,-1464 -169.8,-1464 l -341.2,9.6 -73.8,1492.7 154.5,1876 150.1,474.3 855.6,-127.6"
         style="fill:#13375b;fill-opacity:1;fill-rule:nonzero;stroke:none"
         id="path302" /><path
         d="m 22367.7,1464.3 13.8,-228.4 c 5.1,-28.9 25,-100.4 25,-126.7 0,-98.8 -469.2,83.9 -364.1,127.7 9.6,3.9 74.2,56.3 77.3,89.9 4.9,51.9 2.3,134.3 2.3,134.3 l 245.7,3.2"
         style="fill:#f7a491;fill-opacity:1;fill-rule:nonzero;stroke:none"
         id="path304" /><path
         d="m 22043.6,1237.8 c 0,0 110.2,-30.2 166.6,-37.8 56.4,-7.5 130.8,56.1 170.7,38.9 44,-18.9 45.7,-189.2 45.7,-189.2 0,0 -593.5,-56.501 -760.4,1.7 -64.8,22.6 152.2,116 377.4,186.4"
         style="fill:#f47458;fill-opacity:1;fill-rule:nonzero;stroke:none"
         id="path306" /><path
         d="m 22261.4,5059.2 c 0,0 79.6,-384.4 47.2,-675.9 -32.5,-291.6 -35,-1327.1 -35,-1327.1 l 123.7,-1656.9 -293.5,-6.4 c 0,0 -491.6,1719.9 -485.1,1677.3 6.5,-42.5 -116.7,1166.1 -116.7,1166.1 l 558.5,859.4 200.9,-36.5"
         style="fill:#184655;fill-opacity:1;fill-rule:nonzero;stroke:none"
         id="path308" /><path
         d="m 21072.1,5432.7 400.1,-149.2 c 0,0 106.8,332 148.7,492.8 50.9,195 99.9,450.5 74.9,451.3 -70,2 -168.6,-11.2 -240.6,-70.2 -249.1,-204.1 -383.1,-724.7 -383.1,-724.7"
         style="fill:#f7cc7f;fill-opacity:1;fill-rule:nonzero;stroke:none"
         id="path310" /><path
         d="m 21372.6,5814 c -12.1,-60.9 -309.7,-1598.1 -309.7,-1598.1 753.1,-413 1307.5,-216.4 1307.5,-216.4 0,0 -28.6,1138.2 9.9,1296 25.5,104.5 118.2,792.5 50.8,815.6 -86.4,29.7 -217.1,73.5 -326.1,90.6 -93.1,14.5 -456.4,38.9 -522.6,20.4 0,0 -159.1,-151.9 -209.8,-408.1"
         style="fill:#fae0b2;fill-opacity:1;fill-rule:nonzero;stroke:none"
         id="path312" /><path
         d="m 21978.9,7476.4 c 0,0 -279.1,122.3 -353.6,-120 0,0 -243.1,6.5 -182.9,-240.3 0,0 -233.7,-140.1 -56.8,-443.2 0,0 -45.5,-300.9 302,-293.9 0,0 59.5,-101 215.6,-64.9 156.2,36.1 193.3,80.7 193.3,80.7 0,0 286.2,-61.1 352.2,198 0,0 189,60.2 41.5,297.6 0,0 144.3,332.8 -158.7,407.1 0,0 -58.7,324.9 -352.6,178.9"
         style="fill:#184655;fill-opacity:1;fill-rule:nonzero;stroke:none"
         id="path314" /><path
         d="m 22188.8,6744.1 c -17.4,-62.5 2.9,-122.7 45.1,-134.4 42.3,-11.7 90.6,29.5 107.9,92 17.3,62.5 -2.9,122.7 -45.2,134.4 -42.2,11.7 -90.5,-29.5 -107.8,-92"
         style="fill:#f7a491;fill-opacity:1;fill-rule:nonzero;stroke:none"
         id="path316" /><path
         d="m 21453.3,6839.9 c 1.7,-64.8 38.6,-116.4 82.5,-115.3 43.8,1.2 77.9,54.7 76.2,119.6 -1.8,64.8 -38.7,116.4 -82.5,115.3 -43.8,-1.2 -78,-54.7 -76.2,-119.6"
         style="fill:#f7a491;fill-opacity:1;fill-rule:nonzero;stroke:none"
         id="path318" /><path
         d="m 21771.6,6442.7 c 0.3,-4.5 -25.5,-170.2 -39.2,-257.9 -5.2,-32.6 13.5,-64.3 44.6,-75.8 82.9,-30.7 244.4,-70.1 346.1,36.8 9.3,9.7 13.7,23.1 12.2,36.5 l -42.1,387.8 -321.6,-127.4"
         style="fill:#f7a491;fill-opacity:1;fill-rule:nonzero;stroke:none"
         id="path320" /><path
         d="m 21758,6350 c 88.1,-36.5 194.9,-29.4 309.5,49.6 14.5,10 28.1,20.6 40.8,31.5 l -15.1,139 -321.6,-127.4 c 0.2,-2.2 -5.8,-42.1 -13.6,-92.7"
         style="fill:#f48c7f;fill-opacity:1;fill-rule:nonzero;stroke:none"
         id="path322" /><path
         d="m 21945.8,7276.9 c 0,0 134.8,-25.1 222.1,-148 87.2,-123 157.7,-491.8 -107.8,-675 -265.4,-183.3 -486,53.8 -498.4,292.5 -12.4,238.7 70.9,551.3 384.1,530.5"
         style="fill:#f7a491;fill-opacity:1;fill-rule:nonzero;stroke:none"
         id="path324" /><path
         d="m 21691.3,6639.4 276.3,-2 c 0,0 -7.1,-104.8 -128.7,-107.5 -148.1,-3.2 -147.6,109.5 -147.6,109.5"
         style="fill:#ffffff;fill-opacity:1;fill-rule:nonzero;stroke:none"
         id="path326" /><path
         d="m 21675.7,7225.1 c 0,0 146.7,13.8 232.4,-32.2 85.7,-45.9 287.5,-379.3 344.7,-361.7 57.1,17.6 81.2,227.4 58.8,268.7 -22.3,41.2 -122.7,179.4 -133.6,185.8 -10.9,6.4 -134.1,55.5 -157.3,58.9 -23.2,3.4 -204.7,-5.2 -204.7,-5.2 l -140.3,-114.3"
         style="fill:#184655;fill-opacity:1;fill-rule:nonzero;stroke:none"
         id="path328" /><path
         d="m 21562.5,4407.8 c -25.8,15.7 66.5,121.2 54,148.1 -12.6,26.9 -154.6,-86.8 -175.7,-71.5 -38.8,28.4 147.9,134.2 130.8,148.4 -17,14.2 -214.9,-85.5 -220.6,-41.8 -5.6,43.7 216,81.9 204.5,105.3 -11.5,23.3 -202.9,-54.1 -235.5,-8.9 -17.4,24.1 344,90.8 362.5,127 18.6,36.2 -129.8,94.9 -120,129.8 9.8,34.8 259.8,-128 282,-122.9 22.2,5.2 486.8,144.2 631.2,211.8 -18.3,51.9 -81.6,362.6 -99.9,411 106.2,7.3 169.9,125.1 274.8,138.5 53,-166.8 216.7,-660.4 194.7,-704.9 -66.8,-135.3 -786.3,-239.5 -916.3,-248.5 -130.1,-9.1 -161.5,-66.7 -232.2,-93.8 -70.7,-27.2 -108.6,-143.3 -134.3,-127.6"
         style="fill:#f7a491;fill-opacity:1;fill-rule:nonzero;stroke:none"
         id="path330" /><path
         d="M 22789.1,5286 22303,5051 c 0,0 -76.3,357 -133.3,577.7 -49,189.7 193.2,527.3 273.9,481.1 180.5,-103.4 345.5,-823.8 345.5,-823.8"
         style="fill:#f7cc7f;fill-opacity:1;fill-rule:nonzero;stroke:none"
         id="path332" /><path
         d="m 19947.7,4334.9 -65.2,82 21.5,12.2 c 80.9,45.8 138.4,119.8 162.1,208.4 23.4,87.9 10.6,179.8 -36.1,258.8 -8.7,14.8 -17.8,28.1 -27.8,40.7 -60.4,76.5 -152.8,122.1 -253.5,124.9 -100.5,2.9 -195.1,-37.2 -259.6,-109.8 l -16.7,-18.8 -65,81.9 12.9,13.3 c 91.6,94.7 204.1,140.6 334.4,136.4 178.6,-5.6 334.2,-116.6 396.3,-282.7 65.3,-174.3 19.1,-365.3 -117.5,-486.7 -21,-18.6 -43.8,-35.3 -69.9,-51 l -15.9,-9.6"
         style="fill:#355389;fill-opacity:1;fill-rule:nonzero;stroke:none"
         id="path334" /><path
         d="m 20010.4,4300.9 v 0 l -572.5,721 c -0.8,0.8 -1.7,1.8 -2.6,3 -1.2,1.7 -2.5,3.4 -3.9,5.1 l -24.9,31.3 c -4.7,5.9 -9.3,11.7 -13.9,17.6 l -0.1,0.1 c -4.6,6 -9.2,12 -13.7,18.1 -8.7,11.9 -15.2,14.6 -28.9,6.2 -59.4,-36.2 -119.7,-71.1 -179.5,-106.8 -12.5,-7.4 -25.6,-12.7 -39.8,-16 -87.6,-20.3 -175,-41.1 -262.6,-61.2 -13.4,-3 -16.5,-6.7 -9.8,-19.8 8.4,-16.5 13.1,-34.8 21.4,-51.4 7.6,-15.3 3.8,-23 -11,-30.5 -21.9,-11.2 -21,-12.1 -11.4,-35 33.4,-79 66.4,-158.2 99.6,-237.2 42.5,-101.1 85.2,-202.1 127.7,-303.2 12.7,-30.2 25,-60.4 38.8,-94 -15.7,5.9 -27.9,10.5 -40.1,15.1 -213.1,79.6 -426.1,159.3 -639.2,238.8 -12.5,4.6 -21.3,11.7 -28.6,22.9 -26.8,41.2 -54.5,81.9 -82,122.7 -10.2,15.1 -20.8,29.8 -33.2,47.4 -43.2,-115.3 -85.2,-227.5 -128.5,-343.3 69.6,18.4 135,35.4 200.3,53.1 9.3,2.5 17.1,2.2 25.9,-1.6 264.5,-113.9 529.1,-227.7 793.8,-341.2 9.7,-4.2 14.9,-10.4 18.8,-20 19.4,-47.1 39.8,-93.8 58.9,-141 4.3,-10.7 8.4,-10.6 16.9,-5.5 24.6,15 49.5,29.5 74.3,44.2 225.3,133.3 450.6,266.7 676,399.8 11.4,6.7 15.8,10.5 4.9,23.2 -10.6,12.4 -20.9,25.2 -31.1,38.1"
         style="fill:#f47458;fill-opacity:1;fill-rule:nonzero;stroke:none"
         id="path336" /><path
         d="m 18844.2,4923.2 32.8,-100.3 309.2,182.9 z"
         style="fill:#b75742;fill-opacity:1;fill-rule:nonzero;stroke:none"
         id="path338" /><path
         d="m 18422.4,4416.1 c -2.5,2.6 -4.8,5.6 -7,8.9 -26.8,41.2 -54.5,81.9 -82,122.7 -10.2,15.1 -20.8,29.8 -33.2,47.4 -43.2,-115.3 -85.2,-227.5 -128.5,-343.3 69.6,18.4 135,35.4 200.3,53.1 l 50.4,111.2"
         style="fill:#355389;fill-opacity:1;fill-rule:nonzero;stroke:none"
         id="path340" /><path
         d="m 19267.6,3805.5 c -0.3,0.7 -0.6,1.4 -0.9,2.2 0.3,-0.8 0.6,-1.5 0.9,-2.2 m -1.8,4.4 c -0.2,0.5 -0.4,1 -0.6,1.5 0.2,-0.5 0.4,-1 0.6,-1.5 m -1.8,4.4 c -0.1,0.2 -0.2,0.4 -0.3,0.7 0.1,-0.3 0.2,-0.5 0.3,-0.7 m -10.9,26.3 c -4.2,10.1 -8.5,20.1 -12.7,30.2 v 0 c 4.2,-10.1 8.5,-20.1 12.7,-30.2 m -5.4,1201.7 c 27.4,16.2 54.8,32.4 82.1,48.8 -27.3,-16.4 -54.7,-32.7 -82.1,-48.8 m 83.3,49.6 c 1.2,0.7 2.4,1.4 3.6,2.2 -1.2,-0.8 -2.4,-1.5 -3.6,-2.2 m 6.8,4.1 c 0.5,0.3 1.1,0.6 1.7,1 -0.6,-0.4 -1.2,-0.7 -1.7,-1 m 6.1,3.7 c 0.4,0.2 0.7,0.4 1.1,0.6 -0.4,-0.2 -0.7,-0.4 -1.1,-0.6"
         style="fill:#c3a19d;fill-opacity:1;fill-rule:nonzero;stroke:none"
         id="path342" /><path
         d="m 19277.7,3792.2 c -3.3,0 -5.8,2.6 -8.3,8.9 v 0 c -0.6,1.5 -1.2,2.9 -1.8,4.4 -0.3,0.7 -0.6,1.4 -0.9,2.2 -0.3,0.7 -0.6,1.5 -0.9,2.2 -0.2,0.5 -0.4,1 -0.6,1.5 -0.4,1 -0.8,2 -1.2,2.9 -0.1,0.2 -0.2,0.4 -0.3,0.7 -3.5,8.5 -7,17.1 -10.6,25.6 -4.2,10.1 -8.5,20.1 -12.7,30.2 377.9,356.1 130.2,934.4 4.2,1169.6 1,0.6 2.1,1.3 3.1,1.9 27.4,16.1 54.8,32.4 82.1,48.8 0.4,0.3 0.8,0.5 1.2,0.8 1.2,0.7 2.4,1.4 3.6,2.2 1.1,0.6 2.1,1.2 3.2,1.9 0.5,0.3 1.1,0.6 1.7,1 1.5,0.9 3,1.8 4.4,2.7 0.4,0.2 0.7,0.4 1.1,0.6 1.6,1 3.3,2 4.9,3 5.4,3.3 9.6,4.9 13.3,4.9 5.8,0 10.3,-3.8 15.6,-11.1 4.5,-6.1 9.1,-12.1 13.7,-18.1 l 0.1,-0.1 c 4.6,-5.9 9.2,-11.7 13.9,-17.6 l 24.9,-31.3 c 1.4,-1.7 2.7,-3.4 3.9,-5.1 0.9,-1.2 1.8,-2.2 2.6,-3 l 572.5,-721 v 0 c 10.2,-12.9 20.5,-25.7 31.1,-38.1 4.4,-5.1 6.3,-8.7 6.3,-11.7 0,-4.5 -4.4,-7.5 -11.2,-11.5 -225.4,-133.1 -450.7,-266.5 -676,-399.8 -24.8,-14.7 -49.7,-29.2 -74.3,-44.2 -3.5,-2.1 -6.3,-3.4 -8.6,-3.4"
         style="fill:#d5654d;fill-opacity:1;fill-rule:nonzero;stroke:none"
         id="path344" /><path
         d="m 20101.7,4878.5 c 15,-23.4 10,-54.4 -11.6,-71.9 -40.5,-33 -114,-79.7 -162.6,-34.7 -70.3,64.8 -101.6,271.1 -65.1,272.4 36.4,1.3 222.9,-73.1 219.3,-111.9 -2.1,-22.5 9.1,-36.9 20,-53.9"
         style="fill:#ed9a8c;fill-opacity:1;fill-rule:nonzero;stroke:none"
         id="path346" /><path
         d="m 30918.6,3128.6 c 137.9,358.8 273,717.7 371,1091 301.7,1148.6 228.9,1985.8 217.6,2388.4 -1.5,53.1 83.9,67.7 91.3,12.8 25.7,-188.9 31.4,-380.8 32.6,-571.5 2.1,-322.1 -17.4,-644.4 -58.7,-966.3 221.3,-57.6 430.6,28.7 601.9,183.7 295.2,267.3 400.6,623.5 447,1018.1 4.7,40.3 6.2,78.4 39.1,101.7 7.2,20.7 37.5,27.1 45,-3.8 46.7,-48.1 24.1,-144.6 16.9,-206.7 -97.4,-840.4 -608.3,-1247.8 -1019.6,-1244.2 -45.1,0.4 -99.9,2.6 -148.9,16.2 -29.7,-201 -67.8,-400.6 -114.4,-598.1 -88.9,-376.4 -213.6,-739.5 -350.7,-1099.4 -469,-1230.3 -618.7,-1858.8 -751.9,-2214.9 -20.2,-71.6 -126.1,-41.6 -107.5,30.8 6.6,25.9 372.5,1238 689.3,2062.2"
         style="fill:#29446d;fill-opacity:1;fill-rule:nonzero;stroke:none"
         id="path348" /><path
         d="m 29039.4,6363.2 c 4.4,26.4 19.9,44 25.7,68.8 7.8,32.7 61.2,35.9 66.8,0 3.2,-20.6 14.6,-33.3 19,-54.3 14.3,-68.1 -20.3,-450.8 70,-1036.7 24,-155.7 50.5,-310.6 102.3,-459.2 83.9,-240.3 236.6,-499.2 426.5,-662.9 6.1,343.2 26.6,685.9 67.8,1026.8 24.6,204.1 55.7,407.1 93.4,608.9 18.4,98.3 38.3,196.3 59.7,294 22.4,102.4 43.5,200.8 92.6,293.5 15.1,28.5 57.9,15.3 58,-16.3 0.1,-91 -18,-174.8 -37,-263.2 -18.9,-88 -36.6,-176.3 -53.1,-264.8 -122,-656 -167.9,-1238.6 -167.4,-1895.4 201.2,253.1 377.1,556.2 507.5,853.9 156.7,357.9 262.2,743 306.1,1133.8 12.3,109.4 19.8,219.3 22.1,329.3 1.2,57 2.4,114 3.5,171 0.6,29.3 11.9,117.7 61.3,91.8 45.4,-23.8 41.1,-77 44.9,-123.5 4.1,-50.6 4.5,-101.1 3.8,-151.9 -1.2,-97.3 -6.4,-194.5 -15.4,-291.4 -65.3,-701.8 -330.1,-1395.6 -732.8,-1964 -61.4,-86.7 -124.8,-179.6 -199.3,-255.2 17.1,-1123.3 187.6,-2621 190.5,-2734.4 0.7,-25.1 0,-18.6 -9.3,-27.9 -36.4,-36.498 -79.2,-48.498 -92.9,-9.3 -25.8,74 -21.6,143.4 -60.2,553.2 -68.8,730.7 -145.9,2404.8 -145.6,2472.7 -239.1,171.8 -408.4,436 -519,712 -58.7,146.4 -93.1,297.1 -119,453.1 -87.8,530.5 -85.1,1060.8 -70.5,1147.6"
         style="fill:#29446d;fill-opacity:1;fill-rule:nonzero;stroke:none"
         id="path350" /><path
         d="m 30682.9,7279.9 c -9.1,80.9 -13.8,163.7 -13.8,248 0,939.4 583.7,1700.9 1303.8,1700.9 720.1,0 1303.9,-761.5 1303.9,-1700.9 0,-84.3 -4.7,-167.1 -13.8,-248 h -2580.1"
         style="fill:#4e9b87;fill-opacity:1;fill-rule:nonzero;stroke:none"
         id="path352" /><path
         d="m 29207.2,7697.9 c -9,114.2 -13.8,230.9 -13.8,349.7 0,1324.8 583.8,2398.8 1303.9,2398.8 720.1,0 1303.9,-1074 1303.9,-2398.8 0,-118.8 -4.7,-235.5 -13.8,-349.7 h -2580.2"
         style="fill:#50bfa5;fill-opacity:1;fill-rule:nonzero;stroke:none"
         id="path354" /><path
         d="m 31771.4,6228 c 11.5,114.2 17.4,230.9 17.4,349.7 0,1324.8 -740,2398.8 -1652.9,2398.8 -912.9,0 -1652.9,-1074 -1652.9,-2398.8 0,-118.8 6,-235.5 17.5,-349.7 h 3270.9"
         style="fill:#4e9b87;fill-opacity:1;fill-rule:nonzero;stroke:none"
         id="path356" /><path
         d="m 30502.2,8976.5 c 456.3,0 863.9,-340.7 1132.9,-875.1 137,49.1 282.5,75.5 433.4,75.5 810,0 1466.6,-761.5 1466.6,-1700.9 0,-84.2 -5.3,-167 -15.5,-248 h -4468.5 c -10.2,114.2 -15.5,230.9 -15.5,349.7 0,1324.8 656.6,2398.8 1466.6,2398.8"
         style="fill:#50bfa5;fill-opacity:1;fill-rule:nonzero;stroke:none"
         id="path358" /><path
         d="M 33056.3,984.301 H 1644.55 V 1065.9 H 33056.3 v -81.599"
         style="fill:#13375b;fill-opacity:1;fill-rule:nonzero;stroke:none"
         id="path360" /></g></g></svg>
